<?xml version="1.0" encoding="UTF-8"?>
<!DOCTYPE svg PUBLIC "-//W3C//DTD SVG 1.1//EN" "http://www.w3.org/Graphics/SVG/1.1/DTD/svg11.dtd">
<!-- Creator: CorelDRAW X8 -->
<svg xmlns="http://www.w3.org/2000/svg" xml:space="preserve" width="3413px" height="3732px" version="1.1" style="shape-rendering:geometricPrecision; text-rendering:geometricPrecision; image-rendering:optimizeQuality; fill-rule:evenodd; clip-rule:evenodd"
viewBox="0 0 3413 3732"
 xmlns:xlink="http://www.w3.org/1999/xlink">
 <defs>
  <style type="text/css">
   <![CDATA[
    .fil1 {fill:#296E8C}
    .fil0 {fill:#35ABE1}
    .fil2 {fill:#404042}
   ]]>
  </style>
 </defs>
 <g id="Camada_x0020_1">
  <metadata id="CorelCorpID_0Corel-Layer"/>
  <path class="fil0" d="M2547 1937l0 882c0,21 13,47 41,47l643 0c61,0 40,-120 40,-165l0 -1353c-31,6 -127,98 -161,124 -10,8 -14,10 -25,20 -17,15 -29,22 -44,35l-90 75c-18,14 -28,24 -47,37l-224 184c-9,7 -14,10 -23,17l-68 56c-9,7 -42,34 -42,41z"/>
  <path class="fil1" d="M1437 2413l0 406c0,21 12,47 40,47l643 0c64,0 41,-132 41,-179l0 -636c-71,-12 -269,-61 -318,-62l-305 316c-13,14 -101,99 -101,108z"/>
  <path class="fil0" d="M387 2432l0 377c0,25 8,57 41,57l643 0c28,0 41,-26 41,-47l0 -344c0,-14 -6,-9 -17,-17l-161 -109c-18,-13 -29,-16 -48,-29 -36,-24 -110,-81 -140,-95 -22,4 -236,127 -272,150 -17,10 -87,43 -87,57z"/>
  <path class="fil1" d="M1437 2032c22,-11 126,-123 149,-146 148,-156 139,-138 391,-89 59,12 121,27 184,37l0 -420c0,-39 12,-113 -41,-113l-643 0c-62,0 -40,116 -40,160l0 571z"/>
  <path class="fil0" d="M2547 1608c35,-17 63,-49 93,-72l543 -442c112,-101 88,-24 88,-236 0,-24 -7,-56 -40,-56l-643 0c-64,0 -41,132 -41,179l0 627z"/>
  <path class="fil0" d="M387 2150c33,-2 138,-71 170,-89 84,-48 186,-128 303,-47 15,10 25,18 40,28l125 83c23,16 56,47 87,53l0 -396c0,-39 12,-108 -41,-108l-643 0c-47,0 -41,59 -41,94l0 382z"/>
  <g id="_1968045739584">
   <path class="fil2" d="M3101 2793c1,-302 38,-251 -210,-383l-93 -52c-11,-4 -20,-8 -34,-14 -9,-4 -5,-2 -15,-7 -10,-7 -4,-3 -13,-9l-11 -8c-35,-14 -58,-37 -95,-47l-47 6c-9,18 -10,18 -15,30 -12,18 -7,11 -16,29 -10,25 -11,33 -15,39l-44 98c-5,15 -7,12 -15,28l-13 19 -54 -115 -6 -13 -7 -14c-16,-30 -7,-12 -23,-45 -14,-15 -15,-48 -36,-67 -32,-14 -360,178 -411,206 -114,61 -94,64 -94,219 0,133 -3,179 134,178l910 0c101,0 202,25 223,-78z"/>
   <path class="fil2" d="M2264 2094c14,13 34,35 53,50l6 8c4,3 3,3 4,3 2,2 10,10 12,11 13,13 33,18 50,25 5,2 26,7 28,8 124,11 140,-16 221,-64l5 -6c3,-4 3,-5 8,-11 8,-9 12,-11 20,-21 14,-16 25,-31 36,-48 21,-31 42,-70 58,-110 107,-271 40,-617 -259,-646 -367,-35 -470,387 -311,698 21,41 47,70 69,103z"/>
  </g>
  <g id="_1968111391216">
   <path class="fil2" d="M3232 766c1,-134 20,-111 -108,-170l-48 -22c-6,-2 -10,-4 -17,-7 -5,-2 -3,-1 -8,-3 -5,-3 -2,-1 -7,-4l-6 -4c-18,-6 -29,-16 -49,-20l-24 2c-4,8 -5,8 -8,14 -6,8 -3,5 -8,13 -5,10 -6,14 -8,17l-22 43c-3,7 -4,6 -8,13l-7 8 -27 -51 -4 -6 -3 -6c-8,-13 -3,-5 -12,-20 -7,-6 -8,-21 -19,-29 -16,-6 -185,78 -211,91 -59,27 -48,28 -48,97 0,58 -2,79 68,78l469 0c52,0 104,11 115,-34z"/>
   <path class="fil2" d="M2801 457c7,5 17,15 27,22l3 3c3,2 2,1 2,2 1,0 6,4 6,4 7,6 17,8 26,12 3,1 14,3 15,3 64,5 72,-7 114,-28l2 -3c2,-2 2,-2 4,-5 5,-4 6,-5 11,-9 7,-7 13,-14 18,-21 11,-14 22,-31 30,-49 55,-120 21,-273 -133,-286 -190,-15 -242,172 -161,309 11,18 25,31 36,46z"/>
  </g>
  <g id="_1968111399696">
   <path class="fil1" d="M939 3009c59,0 152,-11 152,46 0,44 7,71 -53,76 -32,2 -59,3 -93,3 0,-23 -3,-36 -3,-61 0,-26 -3,-40 -3,-64zm-142 377c49,12 96,12 145,0l0 -162 155 0c44,0 88,-6 112,-27 34,-28 36,-82 36,-130 0,-105 -43,-148 -148,-148l-300 0 0 467z"/>
   <path class="fil1" d="M1426 3157c0,-62 23,-52 87,-52 41,0 35,37 35,78l-122 0 0 -26zm-140 49c0,193 34,189 230,189 57,0 72,-3 122,-9 14,-1 26,-4 38,-5l0 -61c-39,0 -74,6 -116,6 -136,0 -134,11 -134,-79l262 0c0,-125 9,-212 -149,-212 -54,0 -123,-4 -172,9 -74,19 -81,82 -81,162z"/>
   <path class="fil0" d="M543 3180c-4,16 -41,37 -59,51l-382 285c-21,15 -35,36 -36,50l0 5c1,13 18,16 55,-8l545 -350c26,-16 51,-29 21,-48 -8,-6 -12,-9 -18,-14 -85,-60 -253,-163 -350,-226l-157 -98c-14,-9 -26,-16 -39,-25 -31,-20 -53,-24 -57,-13l0 11c1,5 4,11 8,18 12,23 64,57 90,76l253 189c22,16 41,30 64,47 18,13 53,35 62,50z"/>
   <path class="fil1" d="M2060 3143c0,63 19,83 75,96 36,8 126,13 147,23 4,19 2,16 2,40 0,21 -19,24 -40,24l-123 0c-18,-1 -43,-5 -61,-6l0 61c58,13 272,28 326,-3 43,-25 38,-70 38,-116 0,-90 -99,-81 -196,-95 -32,-5 -28,-6 -28,-39 0,-33 69,-23 116,-23 34,0 57,3 91,3l0 -58c-57,-14 -262,-31 -311,9 -24,20 -36,42 -36,84z"/>
   <path class="fil1" d="M2666 3119c0,70 -9,110 97,124l113 15c19,7 24,63 -15,67 -60,7 -139,0 -198,-5l0 61c72,16 154,14 230,14 143,0 134,-58 134,-145 0,-91 -167,-64 -221,-90 -16,-69 23,-55 119,-55 32,0 53,3 84,3l0 -58c-60,-14 -243,-29 -301,4 -20,10 -42,37 -42,65z"/>
   <path class="fil1" d="M72 2855c0,40 20,60 36,80 23,29 95,87 122,114 8,8 13,10 22,19l103 91c7,6 17,14 15,23 -2,16 -44,45 -57,59l-105 93c-14,12 -27,24 -41,37 -19,18 -42,36 -59,57 -7,10 -12,13 -18,23 -4,6 -37,80 -4,63l410 -309c10,-7 21,-12 24,-25 -8,-12 -97,-77 -110,-87 -38,-28 -75,-56 -114,-84 -49,-37 -155,-114 -197,-149 -5,-4 -27,-25 -27,-5z"/>
   <path class="fil1" d="M1746 3050l0 336c35,9 90,14 125,3 15,-4 9,-17 9,-55l0 -191c-1,-37 -5,-33 32,-32 11,0 20,-1 30,-2 8,0 16,2 28,2l64 3c0,-77 12,-65 -48,-74 -74,-11 -170,-7 -240,10z"/>
   <path class="fil0" d="M212 3180c0,41 -49,60 -75,91 -29,33 -30,76 -30,136 16,-2 22,-17 33,-25l61 -56c30,-31 141,-122 153,-146 -6,-9 -19,-22 -28,-29l-154 -140c-12,-11 -52,-53 -65,-54 0,30 -2,51 4,76 5,22 13,43 24,58 16,19 77,66 77,89z"/>
   <path class="fil1" d="M2477 3386c39,10 69,12 110,6 10,-2 24,0 24,-11l0 -204c0,-29 -99,-124 -134,-133l0 342z"/>
   <path class="fil0" d="M2861 3535l-35 0c0,-11 2,-17 6,-24 22,-5 38,-7 38,15 0,7 -2,9 -9,9zm-7 75l-15 0c-30,-2 -54,-17 -54,-67 0,-40 18,-64 58,-64 29,0 65,4 65,41 0,48 -32,38 -82,38 4,8 6,20 17,20 26,0 37,2 59,-3 0,13 3,12 3,26 -16,4 -34,8 -51,9z"/>
   <path class="fil0" d="M2465 3535l-32 0c0,-31 11,-27 32,-27 16,0 16,27 0,27zm-73 -3c0,48 4,78 67,78 24,0 34,-4 53,-9 -8,-33 5,-23 -35,-23 -26,0 -42,5 -44,-20 42,0 81,8 81,-35 0,-56 -85,-50 -105,-30 -10,9 -17,21 -17,39z"/>
   <path class="fil0" d="M2180 3500l-4 -18 -31 0 0 125c51,0 40,13 40,-84 56,-29 44,-7 44,84l38 0 0 -93c0,-50 -53,-37 -87,-14z"/>
   <path class="fil0" d="M2675 3500l0 -18 -32 0 0 125 37 0 0 -78c0,-13 32,-18 32,-18 7,0 4,1 12,3l0 93 38 0 0 -104c0,-19 -30,-32 -63,-17 -11,5 -15,11 -24,14z"/>
   <path class="fil0" d="M2305 3456l0 26c-13,1 -9,2 -21,3l0 23 21 0c0,52 -10,102 38,102l0 0c12,0 27,-2 35,-6 -1,-11 -3,-11 -3,-26 -37,0 -29,11 -29,-70l32 0 0 -26 -32 0c0,-40 5,-35 -32,-35 -7,0 -9,2 -9,9z"/>
   <path class="fil0" d="M2942 3482c-13,0 -12,2 -23,3l0 23 23 0c0,52 -11,102 35,102 44,0 36,-7 32,-32l-29 -3 0 -67 35 0c0,-30 5,-26 -35,-26 0,-41 7,-35 -38,-35l0 35z"/>
   <path class="fil0" d="M2075 3607l41 0 0 -165c0,-7 -2,-9 -9,-9l-32 0 0 174z"/>
   <path class="fil0" d="M2611 3160l0 -125 -129 0c33,28 66,41 102,88 5,7 8,11 13,18l14 19z"/>
   <path class="fil0" d="M2570 3500c-2,-7 -3,-9 -3,-18l-29 0 0 125 38 0 0 -84c16,-4 25,-9 46,-9 0,-11 3,-13 3,-35 -28,0 -39,10 -55,21z"/>
  </g>
  <g id="_1968111398608">
   <path class="fil2" d="M1073 1634c0,-134 19,-111 -109,-170l-48 -22c-5,-2 -10,-4 -17,-7 -4,-2 -2,-1 -8,-3 -5,-3 -2,-1 -7,-4l-5 -4c-18,-6 -30,-16 -49,-20l-24 2c-5,8 -5,8 -8,14 -6,8 -3,5 -8,13 -5,10 -6,14 -8,17l-23 43c-2,7 -3,6 -7,13l-7 8 -28 -51 -3 -6 -4 -6c-8,-13 -3,-5 -11,-20 -8,-6 -8,-21 -19,-29 -16,-6 -185,78 -212,91 -59,27 -48,28 -48,97 0,58 -2,79 69,78l469 0c52,0 104,11 115,-34z"/>
   <path class="fil2" d="M641 1325c7,5 18,15 28,22l3 3c2,2 1,1 2,2 1,0 5,4 6,4 7,6 17,8 26,12 3,1 13,3 14,3 64,5 72,-7 114,-28l3 -3c1,-2 1,-2 4,-5 4,-4 6,-5 10,-9 7,-7 13,-14 19,-21 11,-14 21,-31 30,-49 55,-120 20,-273 -134,-286 -189,-15 -242,172 -160,309 10,18 24,31 35,46z"/>
  </g>
  <g id="_1968111397584">
   <path class="fil2" d="M2120 1262c1,-134 20,-111 -108,-169l-48 -23c-5,-2 -10,-4 -17,-6 -5,-2 -3,-1 -8,-4 -5,-3 -2,-1 -7,-4l-5 -3c-18,-6 -30,-16 -49,-21l-24 3c-5,8 -5,8 -8,13 -6,8 -4,5 -8,13 -5,11 -6,14 -8,17l-23 43c-2,7 -3,6 -8,13l-6 9 -28 -52 -3 -5 -4 -6c-8,-14 -3,-6 -12,-20 -7,-7 -7,-22 -18,-30 -16,-6 -186,79 -212,91 -59,27 -48,28 -48,97 0,59 -2,79 69,79l469 0c52,0 104,11 114,-35z"/>
   <path class="fil2" d="M1689 953c7,6 18,16 28,22l3 4c2,1 1,1 2,1 1,1 5,4 6,5 7,6 17,8 26,11 2,1 13,3 14,3 64,5 72,-7 114,-28l2 -3c2,-1 2,-2 5,-4 4,-4 6,-5 10,-10 7,-7 13,-13 19,-21 10,-14 21,-31 29,-48 55,-121 21,-274 -133,-286 -189,-16 -242,171 -161,308 11,19 25,31 36,46z"/>
  </g>
 </g>
</svg>
